<svg width="121" height="29" viewBox="0 0 121 29" fill="none" xmlns="http://www.w3.org/2000/svg">
<rect width="121" height="29" fill="#E5E5E5"/>
<g clip-path="url(#clip0_0_1)">
<rect width="121" height="29" fill="white"/>
<path d="M6.6033 27C5.9313 27 5.3313 26.748 4.8033 26.244C4.2753 25.74 4.0113 25.128 4.0113 24.408V4.392C4.0113 3.696 4.2753 3.096 4.8033 2.592C5.3313 2.064 5.9313 1.8 6.6033 1.8H14.7753C15.5193 1.8 16.1313 2.064 16.6113 2.592C17.1153 3.096 17.3673 3.696 17.3673 4.392V9.072L14.0193 9.828V6.444C14.0193 6.108 13.8993 5.808 13.6593 5.544C13.4433 5.28 13.1433 5.148 12.7593 5.148H8.6553C8.3193 5.148 8.0193 5.28 7.7553 5.544C7.4913 5.808 7.3593 6.108 7.3593 6.444V22.356C7.3593 22.74 7.4913 23.052 7.7553 23.292C8.0193 23.532 8.3193 23.652 8.6553 23.652H12.7593C13.1433 23.652 13.4433 23.532 13.6593 23.292C13.8993 23.052 14.0193 22.74 14.0193 22.356V19.728L17.3673 18.936V24.408C17.3673 25.128 17.1153 25.74 16.6113 26.244C16.1313 26.748 15.5193 27 14.7753 27H6.6033ZM19.9537 4.176V0.791998L23.3377 -2.14577e-06V3.384L19.9537 4.176ZM20.0257 27V9.792L23.4097 9V27H20.0257ZM25.696 27V9H33.22C33.916 9 34.528 9.252 35.056 9.756C35.584 10.26 35.848 10.872 35.848 11.592V27H32.464V13.68C32.464 13.296 32.332 12.984 32.068 12.744C31.804 12.504 31.504 12.384 31.168 12.384H29.08V27H25.696ZM40.7575 27C40.0375 27 39.4135 26.748 38.8855 26.244C38.3815 25.716 38.1295 25.092 38.1295 24.372V11.592C38.1295 10.872 38.3815 10.26 38.8855 9.756C39.4135 9.252 40.0375 9 40.7575 9H45.6535C46.3975 9 47.0215 9.252 47.5255 9.756C48.0295 10.26 48.2815 10.872 48.2815 11.592V17.064C48.2815 17.784 48.0295 18.408 47.5255 18.936C47.0215 19.44 46.3975 19.692 45.6535 19.692H41.5135V22.32C41.5135 22.68 41.6335 22.992 41.8735 23.256C42.1375 23.496 42.4615 23.616 42.8455 23.616H47.5255L48.2815 27H40.7575ZM41.5135 16.308H43.6015C43.9615 16.308 44.2615 16.188 44.5015 15.948C44.7655 15.684 44.8975 15.372 44.8975 15.012V13.68C44.8975 13.32 44.7655 13.02 44.5015 12.78C44.2615 12.516 43.9615 12.384 43.6015 12.384H42.8455C42.4615 12.384 42.1375 12.516 41.8735 12.78C41.6335 13.02 41.5135 13.32 41.5135 13.68V16.308ZM51.9644 27V1.8H65.3564V5.148H55.3124V11.376H62.0084L61.2524 14.724H55.3124V27H51.9644ZM66.149 4.176V0.791998L69.533 -2.14577e-06V3.384L66.149 4.176ZM66.221 27V9.792L69.605 9V27H66.221ZM71.8913 27V9H79.4153C80.1113 9 80.7233 9.252 81.2513 9.756C81.7793 10.26 82.0433 10.872 82.0433 11.592V27H78.6593V13.68C78.6593 13.296 78.5273 12.984 78.2633 12.744C77.9993 12.504 77.6993 12.384 77.3633 12.384H75.2753V27H71.8913ZM86.6012 27C85.8572 27 85.2332 26.748 84.7292 26.244C84.2252 25.74 83.9732 25.116 83.9732 24.372V11.628C83.9732 10.884 84.2252 10.26 84.7292 9.756C85.2332 9.252 85.8572 9 86.6012 9H90.7412V0.791998L94.1252 -2.14577e-06V27H86.6012ZM88.6532 23.616H90.7412V12.384H88.6532C88.3172 12.384 88.0172 12.504 87.7532 12.744C87.4892 12.984 87.3572 13.296 87.3572 13.68V22.32C87.3572 22.656 87.4892 22.956 87.7532 23.22C88.0172 23.484 88.3172 23.616 88.6532 23.616ZM99.2926 27C98.5726 27 97.9486 26.748 97.4206 26.244C96.9166 25.716 96.6646 25.092 96.6646 24.372V11.592C96.6646 10.872 96.9166 10.26 97.4206 9.756C97.9486 9.252 98.5726 9 99.2926 9H104.189C104.933 9 105.557 9.252 106.061 9.756C106.565 10.26 106.817 10.872 106.817 11.592V17.064C106.817 17.784 106.565 18.408 106.061 18.936C105.557 19.44 104.933 19.692 104.189 19.692H100.049V22.32C100.049 22.68 100.169 22.992 100.409 23.256C100.673 23.496 100.997 23.616 101.381 23.616H106.061L106.817 27H99.2926ZM100.049 16.308H102.137C102.497 16.308 102.797 16.188 103.037 15.948C103.301 15.684 103.433 15.372 103.433 15.012V13.68C103.433 13.32 103.301 13.02 103.037 12.78C102.797 12.516 102.497 12.384 102.137 12.384H101.381C100.997 12.384 100.673 12.516 100.409 12.78C100.169 13.02 100.049 13.32 100.049 13.68V16.308ZM108.618 27V9H116.142C116.862 9 117.474 9.264 117.978 9.792C118.506 10.296 118.77 10.908 118.77 11.628V15.552L115.386 14.796V13.716C115.386 13.356 115.254 13.044 114.99 12.78C114.75 12.516 114.45 12.384 114.09 12.384H112.002V27H108.618Z" fill="#FF961C"/>
</g>
<defs>
<clipPath id="clip0_0_1">
<rect width="121" height="29" fill="white"/>
</clipPath>
</defs>
</svg>
